<svg xmlns="http://www.w3.org/2000/svg" width="600" height="400" viewBox="0 0 600 400">
  <defs>
    <marker id="arrowhead" markerWidth="10" markerHeight="7" refX="10" refY="3.5" orient="auto">
      <polygon points="0 0, 10 3.5, 0 7" fill="#000" />
    </marker>
  </defs>
  <text x="250" y="20" font-family="Arial" font-size="16" text-anchor="middle">AI Agent Security Workflow</text>
  <rect x="200" y="40" width="200" height="40" fill="#e1f5fe" stroke="#000" stroke-width="2" rx="10"/>
  <text x="300" y="65" font-family="Arial" font-size="14" text-anchor="middle">AI Agent Deployment</text>
  <line x1="300" y1="80" x2="300" y2="120" stroke="#000" stroke-width="2" marker-end="url(#arrowhead)"/>
  <rect x="150" y="120" width="150" height="30" fill="#fff3e0" stroke="#000" stroke-width="2" rx="5"/>
  <text x="225" y="140" font-family="Arial" font-size="12" text-anchor="middle">Zero-Trust Architecture</text>
  <line x1="225" y1="150" x2="175" y2="180" stroke="#000" stroke-width="2" marker-end="url(#arrowhead)"/>
  <rect x="100" y="180" width="150" height="25" fill="#e8f5e8" stroke="#000" stroke-width="1" rx="5"/>
  <text x="175" y="195" font-family="Arial" font-size="10" text-anchor="middle">Limit Permissions via RBAC</text>
  <line x1="225" y1="150" x2="275" y2="180" stroke="#000" stroke-width="2" marker-end="url(#arrowhead)"/>
  <rect x="250" y="180" width="150" height="25" fill="#e8f5e8" stroke="#000" stroke-width="1" rx="5"/>
  <text x="325" y="195" font-family="Arial" font-size="10" text-anchor="middle">Network Segmentation</text>
  <line x1="300" y1="80" x2="400" y2="120" stroke="#000" stroke-width="2" marker-end="url(#arrowhead)"/>
  <rect x="350" y="120" width="150" height="30" fill="#fff3e0" stroke="#000" stroke-width="2" rx="5"/>
  <text x="425" y="140" font-family="Arial" font-size="12" text-anchor="middle">Model & Code Integrity</text>
  <line x1="425" y1="150" x2="375" y2="180" stroke="#000" stroke-width="2" marker-end="url(#arrowhead)"/>
  <rect x="300" y="180" width="150" height="25" fill="#e8f5e8" stroke="#000" stroke-width="1" rx="5"/>
  <text x="375" y="195" font-family="Arial" font-size="10" text-anchor="middle">Sign Checkpoints & Containers</text>
  <line x1="425" y1="150" x2="475" y2="180" stroke="#000" stroke-width="2" marker-end="url(#arrowhead)"/>
  <rect x="450" y="180" width="100" height="25" fill="#e8f5e8" stroke="#000" stroke-width="1" rx="5"/>
  <text x="500" y="195" font-family="Arial" font-size="10" text-anchor="middle">Verify at Runtime</text>
  <!-- Add more nodes as needed -->
  <text x="300" y="250" font-family="Arial" font-size="10" text-anchor="middle">(Simplified diagram - full workflow includes monitoring, validation, etc.)</text>
</svg>